HIERARCHY
ROOT mixamorig:Hips
{
	OFFSET -0.000008 104.274872 1.554316
	CHANNELS 6 Xposition Yposition Zposition Xrotation Yrotation Zrotation
	JOINT mixamorig:Spine
	{
		OFFSET -0.000005 10.181595 0.131519
		CHANNELS 6 Xposition Yposition Zposition Xrotation Yrotation Zrotation
		JOINT mixamorig:Spine1
		{
			OFFSET -0.000000 9.893959 -1.470707
			CHANNELS 6 Xposition Yposition Zposition Xrotation Yrotation Zrotation
			JOINT mixamorig:Spine2
			{
				OFFSET -0.000000 9.220757 -1.370641
				CHANNELS 6 Xposition Yposition Zposition Xrotation Yrotation Zrotation
				JOINT mixamorig:Neck
				{
					OFFSET 0.000001 16.740417 -2.049036
					CHANNELS 6 Xposition Yposition Zposition Xrotation Yrotation Zrotation
					JOINT mixamorig:Head
					{
						OFFSET 0.000000 9.617874 1.685006
						CHANNELS 6 Xposition Yposition Zposition Xrotation Yrotation Zrotation
						JOINT mixamorig:HeadTop_End
						{
							OFFSET 0.000002 22.037354 7.501101
							CHANNELS 6 Xposition Yposition Zposition Xrotation Yrotation Zrotation
							End Site
							{
								OFFSET 0.000168 2310.654297 -282.823242
							}
						}
					}
				}
				JOINT mixamorig:RightShoulder
				{
					OFFSET -4.569970 11.014908 -2.160885
					CHANNELS 6 Xposition Yposition Zposition Xrotation Yrotation Zrotation
					JOINT mixamorig:RightArm
					{
						OFFSET -10.592851 -0.524811 -2.232101
						CHANNELS 6 Xposition Yposition Zposition Xrotation Yrotation Zrotation
						JOINT mixamorig:RightForeArm
						{
							OFFSET -27.841511 0.000031 -0.000004
							CHANNELS 6 Xposition Yposition Zposition Xrotation Yrotation Zrotation
							JOINT mixamorig:RightHand
							{
								OFFSET -28.328831 -0.000015 0.000015
								CHANNELS 6 Xposition Yposition Zposition Xrotation Yrotation Zrotation
								JOINT mixamorig:RightHandThumb1
								{
									OFFSET -2.464806 -1.573990 2.681852
									CHANNELS 6 Xposition Yposition Zposition Xrotation Yrotation Zrotation
									JOINT mixamorig:RightHandThumb2
									{
										OFFSET -3.215179 -1.872803 1.924282
										CHANNELS 6 Xposition Yposition Zposition Xrotation Yrotation Zrotation
										JOINT mixamorig:RightHandThumb3
										{
											OFFSET -2.654831 -1.527969 1.512609
											CHANNELS 6 Xposition Yposition Zposition Xrotation Yrotation Zrotation
											JOINT mixamorig:RightHandThumb4
											{
												OFFSET -2.018814 -1.152008 1.108052
												CHANNELS 6 Xposition Yposition Zposition Xrotation Yrotation Zrotation
												End Site
												{
													OFFSET -188.809540 -114.533607 132.431396
												}
											}
										}
									}
								}
								JOINT mixamorig:RightHandIndex1
								{
									OFFSET -9.108284 -0.517868 2.259835
									CHANNELS 6 Xposition Yposition Zposition Xrotation Yrotation Zrotation
									JOINT mixamorig:RightHandIndex2
									{
										OFFSET -3.699989 0.000000 0.001215
										CHANNELS 6 Xposition Yposition Zposition Xrotation Yrotation Zrotation
										JOINT mixamorig:RightHandIndex3
										{
											OFFSET -2.850006 0.000031 -0.000522
											CHANNELS 6 Xposition Yposition Zposition Xrotation Yrotation Zrotation
											JOINT mixamorig:RightHandIndex4
											{
												OFFSET -2.772186 -0.000015 -0.000020
												CHANNELS 6 Xposition Yposition Zposition Xrotation Yrotation Zrotation
												End Site
												{
													OFFSET -277.218445 0.000000 -0.050231
												}
											}
										}
									}
								}
								JOINT mixamorig:RightHandMiddle1
								{
									OFFSET -9.532516 -0.000031 -0.000023
									CHANNELS 6 Xposition Yposition Zposition Xrotation Yrotation Zrotation
									JOINT mixamorig:RightHandMiddle2
									{
										OFFSET -3.700005 -0.000015 0.003713
										CHANNELS 6 Xposition Yposition Zposition Xrotation Yrotation Zrotation
										JOINT mixamorig:RightHandMiddle3
										{
											OFFSET -2.949974 0.000015 -0.002054
											CHANNELS 6 Xposition Yposition Zposition Xrotation Yrotation Zrotation
											JOINT mixamorig:RightHandMiddle4
											{
												OFFSET -2.946640 0.000000 -0.000156
												CHANNELS 6 Xposition Yposition Zposition Xrotation Yrotation Zrotation
												End Site
												{
													OFFSET -294.664337 0.000000 -0.113670
												}
											}
										}
									}
								}
								JOINT mixamorig:RightHandRing1
								{
									OFFSET -9.103600 -0.043076 -1.865134
									CHANNELS 6 Xposition Yposition Zposition Xrotation Yrotation Zrotation
									JOINT mixamorig:RightHandRing2
									{
										OFFSET -3.379288 0.000000 -0.001055
										CHANNELS 6 Xposition Yposition Zposition Xrotation Yrotation Zrotation
										JOINT mixamorig:RightHandRing3
										{
											OFFSET -2.889687 -0.000015 0.000379
											CHANNELS 6 Xposition Yposition Zposition Xrotation Yrotation Zrotation
											JOINT mixamorig:RightHandRing4
											{
												OFFSET -2.638809 -0.000015 0.000941
												CHANNELS 6 Xposition Yposition Zposition Xrotation Yrotation Zrotation
												End Site
												{
													OFFSET -263.880371 0.000000 0.516020
												}
											}
										}
									}
								}
								JOINT mixamorig:RightHandPinky1
								{
									OFFSET -8.076683 -0.486710 -3.806280
									CHANNELS 6 Xposition Yposition Zposition Xrotation Yrotation Zrotation
									JOINT mixamorig:RightHandPinky2
									{
										OFFSET -3.600014 -0.000015 -0.003747
										CHANNELS 6 Xposition Yposition Zposition Xrotation Yrotation Zrotation
										JOINT mixamorig:RightHandPinky3
										{
											OFFSET -2.099983 0.000000 -0.005739
											CHANNELS 6 Xposition Yposition Zposition Xrotation Yrotation Zrotation
											JOINT mixamorig:RightHandPinky4
											{
												OFFSET -2.115768 -0.000031 -0.003680
												CHANNELS 6 Xposition Yposition Zposition Xrotation Yrotation Zrotation
												End Site
												{
													OFFSET -211.577087 0.000000 -0.350686
												}
											}
										}
									}
								}
							}
						}
					}
				}
				JOINT mixamorig:LeftShoulder
				{
					OFFSET 4.570447 11.014725 -2.160855
					CHANNELS 6 Xposition Yposition Zposition Xrotation Yrotation Zrotation
					JOINT mixamorig:LeftArm
					{
						OFFSET 10.592371 -0.524597 -2.232119
						CHANNELS 6 Xposition Yposition Zposition Xrotation Yrotation Zrotation
						JOINT mixamorig:LeftForeArm
						{
							OFFSET 27.841532 -0.000031 0.000026
							CHANNELS 6 Xposition Yposition Zposition Xrotation Yrotation Zrotation
							JOINT mixamorig:LeftHand
							{
								OFFSET 28.328846 -0.000061 0.000022
								CHANNELS 6 Xposition Yposition Zposition Xrotation Yrotation Zrotation
								JOINT mixamorig:LeftHandThumb1
								{
									OFFSET 2.466141 -1.576172 2.681732
									CHANNELS 6 Xposition Yposition Zposition Xrotation Yrotation Zrotation
									JOINT mixamorig:LeftHandThumb2
									{
										OFFSET 3.217812 -1.872070 1.916482
										CHANNELS 6 Xposition Yposition Zposition Xrotation Yrotation Zrotation
										JOINT mixamorig:LeftHandThumb3
										{
											OFFSET 2.656029 -1.528778 1.514513
											CHANNELS 6 Xposition Yposition Zposition Xrotation Yrotation Zrotation
											JOINT mixamorig:LeftHandThumb4
											{
												OFFSET 2.020889 -1.154053 1.115139
												CHANNELS 6 Xposition Yposition Zposition Xrotation Yrotation Zrotation
												End Site
												{
													OFFSET 190.885437 -115.081749 130.048782
												}
											}
										}
									}
								}
								JOINT mixamorig:LeftHandIndex1
								{
									OFFSET 9.109314 -0.518021 2.259871
									CHANNELS 6 Xposition Yposition Zposition Xrotation Yrotation Zrotation
									JOINT mixamorig:LeftHandIndex2
									{
										OFFSET 3.699989 0.000000 -0.000322
										CHANNELS 6 Xposition Yposition Zposition Xrotation Yrotation Zrotation
										JOINT mixamorig:LeftHandIndex3
										{
											OFFSET 2.850006 0.000000 0.000352
											CHANNELS 6 Xposition Yposition Zposition Xrotation Yrotation Zrotation
											JOINT mixamorig:LeftHandIndex4
											{
												OFFSET 2.774864 -0.000031 -0.000027
												CHANNELS 6 Xposition Yposition Zposition Xrotation Yrotation Zrotation
												End Site
												{
													OFFSET 277.486267 0.000000 -0.009857
												}
											}
										}
									}
								}
								JOINT mixamorig:LeftHandMiddle1
								{
									OFFSET 9.533394 0.000061 0.000044
									CHANNELS 6 Xposition Yposition Zposition Xrotation Yrotation Zrotation
									JOINT mixamorig:LeftHandMiddle2
									{
										OFFSET 3.699989 -0.000015 -0.000231
										CHANNELS 6 Xposition Yposition Zposition Xrotation Yrotation Zrotation
										JOINT mixamorig:LeftHandMiddle3
										{
											OFFSET 2.949997 -0.000015 -0.000059
											CHANNELS 6 Xposition Yposition Zposition Xrotation Yrotation Zrotation
											JOINT mixamorig:LeftHandMiddle4
											{
												OFFSET 2.952896 0.000031 0.000063
												CHANNELS 6 Xposition Yposition Zposition Xrotation Yrotation Zrotation
												End Site
												{
													OFFSET 295.289337 0.000000 0.022810
												}
											}
										}
									}
								}
								JOINT mixamorig:LeftHandRing1
								{
									OFFSET 9.104523 -0.042999 -1.865074
									CHANNELS 6 Xposition Yposition Zposition Xrotation Yrotation Zrotation
									JOINT mixamorig:LeftHandRing2
									{
										OFFSET 3.150009 -0.000031 0.000043
										CHANNELS 6 Xposition Yposition Zposition Xrotation Yrotation Zrotation
										JOINT mixamorig:LeftHandRing3
										{
											OFFSET 2.949982 -0.000015 0.000040
											CHANNELS 6 Xposition Yposition Zposition Xrotation Yrotation Zrotation
											JOINT mixamorig:LeftHandRing4
											{
												OFFSET 2.644348 0.000000 0.000057
												CHANNELS 6 Xposition Yposition Zposition Xrotation Yrotation Zrotation
												End Site
												{
													OFFSET 264.434631 0.000000 0.012105
												}
											}
										}
									}
								}
								JOINT mixamorig:LeftHandPinky1
								{
									OFFSET 8.077789 -0.486847 -3.806259
									CHANNELS 6 Xposition Yposition Zposition Xrotation Yrotation Zrotation
									JOINT mixamorig:LeftHandPinky2
									{
										OFFSET 3.599953 0.000031 0.014727
										CHANNELS 6 Xposition Yposition Zposition Xrotation Yrotation Zrotation
										JOINT mixamorig:LeftHandPinky3
										{
											OFFSET 2.100021 0.000015 0.007705
											CHANNELS 6 Xposition Yposition Zposition Xrotation Yrotation Zrotation
											JOINT mixamorig:LeftHandPinky4
											{
												OFFSET 2.125504 0.000031 0.007517
												CHANNELS 6 Xposition Yposition Zposition Xrotation Yrotation Zrotation
												End Site
												{
													OFFSET 212.550781 0.000000 0.625752
												}
											}
										}
									}
								}
							}
						}
					}
				}
			}
		}
	}
	JOINT mixamorig:RightUpLeg
	{
		OFFSET -8.207787 -6.751648 -1.599560
		CHANNELS 6 Xposition Yposition Zposition Xrotation Yrotation Zrotation
		JOINT mixamorig:RightLeg
		{
			OFFSET -0.000002 -44.370117 0.345942
			CHANNELS 6 Xposition Yposition Zposition Xrotation Yrotation Zrotation
			JOINT mixamorig:RightFoot
			{
				OFFSET 0.000003 -44.423679 -3.043532
				CHANNELS 6 Xposition Yposition Zposition Xrotation Yrotation Zrotation
				JOINT mixamorig:RightToeBase
				{
					OFFSET -0.000002 -8.728671 10.710558
					CHANNELS 6 Xposition Yposition Zposition Xrotation Yrotation Zrotation
					JOINT mixamorig:RightToe_End
					{
						OFFSET -0.000001 -0.000679 9.278119
						CHANNELS 6 Xposition Yposition Zposition Xrotation Yrotation Zrotation
						End Site
						{
							OFFSET 0.000000 -0.067690 927.812134
						}
					}
				}
			}
		}
	}
	JOINT mixamorig:LeftUpLeg
	{
		OFFSET 8.207793 -6.751686 -1.599556
		CHANNELS 6 Xposition Yposition Zposition Xrotation Yrotation Zrotation
		JOINT mixamorig:LeftLeg
		{
			OFFSET -0.000004 -44.370014 0.346954
			CHANNELS 6 Xposition Yposition Zposition Xrotation Yrotation Zrotation
			JOINT mixamorig:LeftFoot
			{
				OFFSET -0.000001 -44.423672 -3.044401
				CHANNELS 6 Xposition Yposition Zposition Xrotation Yrotation Zrotation
				JOINT mixamorig:LeftToeBase
				{
					OFFSET -0.000002 -8.728669 10.710558
					CHANNELS 6 Xposition Yposition Zposition Xrotation Yrotation Zrotation
					JOINT mixamorig:LeftToe_End
					{
						OFFSET -0.000003 -0.000679 9.278133
						CHANNELS 6 Xposition Yposition Zposition Xrotation Yrotation Zrotation
						End Site
						{
							OFFSET 0.000000 -0.068021 927.813477
						}
					}
				}
			}
		}
	}
}
MOTION
Frames: 3
Frame Time: 0.033333
0.000006 104.270477 1.554256 0.000010 0.000003 -0.000113 -0.000005 10.181587 0.131522 0.000001 -0.000003 0.000084 -0.000000 9.893967 -1.470711 0.000001 0.000000 -0.000000 -0.000000 9.220802 -1.370642 0.000000 -0.000000 -0.000000 0.000001 16.740433 -2.049030 0.000000 -0.000000 -0.000000 0.000000 9.617859 1.685014 0.000000 0.000000 0.000000 0.000002 22.037384 7.501101 0.000000 -0.000000 0.000000 -4.569968 11.014880 -2.160881 0.000008 0.000001 -0.000038 -10.592784 -0.524848 -2.231758 72.064670 64.852031 -49.602278 -27.841503 -0.000012 0.000568 51.376946 103.186031 -62.494052 -28.328831 0.000006 0.000015 -0.000324 -0.000045 0.000008 -2.464671 -1.574197 2.682042 106.602553 -153.391296 155.346410 -3.214942 -1.873050 1.924530 248.648802 -43.073147 -53.838966 -2.654545 -1.528231 1.513018 221.449677 -46.272319 -439.256924 -2.018831 -1.151995 1.108061 -0.000000 -0.000001 0.000004 -9.108096 -0.517676 2.260423 -170.404354 11.743705 -258.481624 -3.699712 0.000192 0.001813 -173.588179 10.458217 -242.860708 -2.849808 0.000241 0.000062 -174.454643 6.164278 -263.937033 -2.772145 0.000003 -0.000019 -0.000002 -0.000002 -0.000001 -9.532354 0.000154 0.000555 -169.937880 8.268193 -281.097118 -3.699857 0.000212 0.004303 -169.332315 7.666572 -288.822909 -2.949877 0.000197 -0.001471 -169.965678 6.766246 67.895598 -2.946628 0.000013 -0.000160 0.000001 0.000001 -0.000002 -9.103506 -0.042855 -1.864550 -167.550018 6.953787 -301.870947 -3.379199 0.000174 -0.000465 -165.133320 6.558454 47.470727 -2.889637 0.000182 0.000965 -165.643685 5.754298 43.674750 -2.638808 -0.000021 0.000937 -0.000000 0.000000 -0.000000 -8.076581 -0.486514 -3.805697 -166.664429 7.801285 -299.815716 -3.599972 0.000038 -0.003175 -163.142347 2.258951 13.326297 -2.099988 0.000020 -0.005173 -162.428196 -0.342131 -3.554052 -2.115772 -0.000034 -0.003677 -0.000002 -0.000005 -0.000005 4.570446 11.014691 -2.160851 -0.000018 0.000010 -0.000021 10.592525 -0.524534 -2.232398 67.419937 -64.040605 45.294061 27.841745 -0.000071 -0.000129 80.228044 -99.516143 89.740599 28.328833 -0.000029 0.000033 0.000019 -0.000087 -0.000000 2.466156 -1.576150 2.681858 102.108487 139.793236 -150.065813 3.217818 -1.872001 1.916548 268.811275 41.688104 39.474385 2.656040 -1.528765 1.514611 86.983484 143.967410 219.327196 2.020898 -1.154072 1.115150 0.000001 -0.000000 0.000003 9.109196 -0.517756 2.260098 235.637100 -20.550583 322.086723 3.699872 0.000230 -0.000089 244.733929 -23.691192 323.369132 2.849913 0.000252 0.000603 610.135662 -19.710348 -27.799283 2.774880 -0.000031 -0.000025 -0.000002 0.000001 -0.000000 9.533311 0.000352 0.000269 592.681524 -16.570594 -32.770872 3.699894 0.000245 0.000011 601.407828 -18.201894 -30.190420 2.949934 0.000226 0.000176 608.766783 -17.600866 -25.498580 2.952863 -0.000017 0.000057 0.000001 -0.000000 0.000001 9.104431 -0.042717 -1.864860 592.690376 -15.441285 -30.622918 3.149972 0.000284 0.000265 600.625580 -6.153029 -10.507122 2.949947 0.000267 0.000280 609.227520 -7.499836 -10.850872 2.644317 0.000061 0.000060 -0.000004 -0.000000 0.000000 8.077669 -0.486563 -3.806048 590.777595 -16.099996 -33.743600 3.599936 0.000289 0.014981 602.587593 -3.448056 -6.310801 2.099977 0.000272 0.007953 608.488385 -4.552658 -7.222336 2.125509 -0.000016 0.007520 0.000001 -0.000000 0.000001 -8.207786 -6.751667 -1.599560 -0.077001 -0.000003 0.000080 -0.000002 -44.370110 0.345938 0.153719 -0.000000 -0.000000 0.000000 -44.423679 -3.043532 -0.076700 0.000000 -0.000002 -0.000006 -8.728667 10.710559 -0.000009 -0.000000 -0.000000 -0.000001 -0.000679 9.278123 0.000000 -0.000000 -0.000000 8.207792 -6.751710 -1.599556 -0.074518 -0.000003 0.000081 -0.000002 -44.370014 0.346960 0.148822 0.000002 0.000000 -0.000001 -44.423664 -3.044403 -0.074314 0.000000 -0.000002 -0.000004 -8.728671 10.710558 0.000007 -0.000000 -0.000000 0.000000 -0.000680 9.278137 -0.000000 0.000000 -0.000001 
0.000006 104.270477 1.554256 0.000010 0.000003 -0.000113 -0.000005 10.181587 0.131522 0.000001 -0.000003 0.000084 -0.000000 9.893967 -1.470711 0.000001 0.000000 -0.000000 -0.000000 9.220802 -1.370642 0.000000 -0.000000 -0.000000 0.000001 16.740433 -2.049030 0.000000 -0.000000 -0.000000 0.000000 9.617859 1.685014 0.000000 0.000000 0.000000 0.000002 22.037384 7.501101 0.000000 -0.000000 0.000000 -4.569968 11.014880 -2.160881 0.000008 0.000001 -0.000038 -10.592785 -0.524834 -2.231748 69.299980 66.565384 -48.807299 -27.841496 0.000001 0.000574 47.925877 104.583549 -59.787938 -28.328836 0.000036 0.000010 -0.000322 -0.000045 0.000007 -2.464645 -1.574213 2.682054 105.901175 -149.633763 154.288414 -3.214864 -1.873026 1.924587 236.232092 -50.682978 -67.631932 -2.654476 -1.528199 1.513014 204.355408 -51.480283 -459.857567 -2.018827 -1.151995 1.108063 -0.000002 -0.000005 0.000002 -9.108035 -0.517718 2.260418 -174.703070 9.546575 -238.124546 -3.699719 0.000182 0.001801 -174.946252 9.775748 -234.488590 -2.849751 0.000195 0.000055 -176.031979 6.337991 -244.062439 -2.772154 -0.000002 -0.000023 0.000001 0.000000 -0.000001 -9.532389 0.000182 0.000550 -170.943270 5.279612 -299.148461 -3.699856 0.000216 0.004287 -171.761923 6.628069 -282.524191 -2.949842 0.000210 -0.001478 -172.112625 6.667967 80.389749 -2.946620 0.000010 -0.000157 -0.000001 0.000001 0.000004 -9.103533 -0.042853 -1.864550 -167.703165 5.143219 -314.898058 -3.379168 0.000203 -0.000468 -167.872977 5.745961 50.635932 -2.889587 0.000240 0.000967 -168.793358 5.758830 54.443264 -2.638812 -0.000009 0.000944 0.000002 -0.000001 -0.000002 -8.076607 -0.486522 -3.805695 -165.081492 5.715205 -318.763043 -3.599993 0.000037 -0.003183 -165.077968 1.023888 5.541325 -2.099991 0.000012 -0.005170 -165.332256 -0.643707 -6.647360 -2.115784 -0.000028 -0.003675 0.000001 -0.000000 -0.000003 4.570446 11.014691 -2.160851 -0.000018 0.000010 -0.000021 10.592520 -0.524542 -2.232393 63.249997 -64.982795 42.828507 27.841740 -0.000065 -0.000098 75.762501 -102.573240 88.289395 28.328840 -0.000013 0.000023 0.000020 -0.000089 -0.000000 2.466139 -1.576147 2.681891 92.180472 132.128220 -141.761068 3.217832 -1.872035 1.916505 251.629169 48.160063 54.060281 2.656036 -1.528783 1.514599 79.768809 141.833454 224.732799 2.020898 -1.154069 1.115153 0.000000 0.000003 0.000006 9.109072 -0.517736 2.260021 199.241618 -15.244065 283.427688 3.699751 0.000211 -0.000174 198.679807 -20.125941 265.654525 2.849757 0.000301 0.000497 560.703561 -17.283276 -79.521440 2.774883 -0.000032 -0.000025 -0.000001 0.000004 0.000002 9.533205 0.000389 0.000187 559.044700 -10.658649 -58.143864 3.699763 0.000301 -0.000081 559.419158 -13.903917 -70.947149 2.949768 0.000260 0.000101 561.146813 -16.891136 -77.001340 2.952854 -0.000017 0.000044 -0.000001 -0.000002 -0.000005 9.104370 -0.042657 -1.864922 561.955508 -9.747270 -47.461578 3.149906 0.000420 0.000198 562.786332 -6.023144 -29.269379 2.949825 0.000412 0.000222 568.407632 -10.518619 -39.973689 2.644338 0.000015 0.000066 -0.000000 0.000002 0.000001 8.077596 -0.486531 -3.806085 562.835236 -12.106910 -56.200234 3.599911 0.000404 0.014890 566.122524 -2.951350 -14.232180 2.099895 0.000431 0.007868 566.124273 -6.778480 -29.810330 2.125510 -0.000016 0.007534 0.000000 0.000008 0.000000 -8.207786 -6.751667 -1.599560 -0.077001 -0.000003 0.000080 -0.000002 -44.370110 0.345938 0.153719 -0.000000 -0.000000 0.000000 -44.423679 -3.043532 -0.076700 0.000000 -0.000002 -0.000006 -8.728667 10.710559 -0.000009 -0.000000 -0.000000 -0.000001 -0.000679 9.278123 0.000000 -0.000000 -0.000000 8.207792 -6.751710 -1.599556 -0.074518 -0.000003 0.000081 -0.000002 -44.370014 0.346960 0.148822 0.000002 0.000000 -0.000001 -44.423664 -3.044403 -0.074314 0.000000 -0.000002 -0.000004 -8.728671 10.710558 0.000007 -0.000000 -0.000000 0.000000 -0.000680 9.278137 -0.000000 0.000000 -0.000001 
0.000006 104.270477 1.554256 0.000010 0.000003 -0.000113 -0.000005 10.181587 0.131522 0.000001 -0.000003 0.000084 -0.000000 9.893967 -1.470711 0.000001 0.000000 -0.000000 -0.000000 9.220802 -1.370642 0.000000 -0.000000 -0.000000 0.000001 16.740433 -2.049030 0.000000 -0.000000 -0.000000 0.000000 9.617859 1.685014 0.000000 0.000000 0.000000 0.000002 22.037384 7.501101 0.000000 -0.000000 0.000000 -4.569968 11.014880 -2.160881 0.000008 0.000001 -0.000038 -10.592783 -0.524840 -2.231745 67.202703 68.034230 -48.308108 -27.841490 0.000001 0.000591 43.115832 105.256009 -54.701885 -28.328835 0.000022 0.000043 -0.000318 -0.000044 0.000006 -2.464597 -1.574219 2.682086 97.986816 -140.128366 147.789584 -3.214819 -1.873005 1.924608 224.543275 -57.032390 -81.799459 -2.654428 -1.528135 1.513019 188.918005 -54.081380 -479.062201 -2.018831 -1.151982 1.108063 -0.000006 -0.000002 0.000004 -9.108037 -0.517881 2.260408 -180.697080 6.854087 -169.080650 -3.699744 -0.000056 0.001786 -182.953379 10.005986 -146.903517 -2.849820 -0.000049 0.000053 -182.901510 8.366764 -141.790274 -2.772159 -0.000013 -0.000016 0.000002 -0.000003 0.000001 -9.532245 0.000155 0.000536 -178.577113 1.877759 -255.316159 -3.699736 -0.000023 0.004276 -180.577511 5.337083 -165.758104 -2.949764 -0.000040 -0.001482 -180.836362 6.873333 193.970897 -2.946618 0.000001 -0.000152 -0.000000 -0.000001 0.000001 -9.103467 -0.042816 -1.864557 -176.241161 2.053639 -303.096365 -3.379107 0.000248 -0.000483 -176.024084 2.824297 70.848002 -2.889454 0.000294 0.000955 -175.340532 4.697813 90.464510 -2.638816 0.000014 0.000939 0.000001 0.000002 -0.000000 -8.076588 -0.486510 -3.805711 -174.576220 2.327308 -314.853935 -3.599986 -0.000064 -0.003191 -172.881937 -2.235697 -41.025996 -2.099968 -0.000035 -0.005187 -171.366195 -2.236815 -32.189575 -2.115772 -0.000024 -0.003679 -0.000000 -0.000005 -0.000002 4.570446 11.014691 -2.160851 -0.000018 0.000010 -0.000021 10.592516 -0.524551 -2.232382 57.943234 -66.923997 40.198573 27.841722 -0.000079 -0.000106 71.193678 -103.394680 84.374133 28.328831 -0.000029 0.000024 0.000021 -0.000090 0.000000 2.466149 -1.576152 2.681870 90.729754 132.011752 -140.745378 3.217803 -1.872010 1.916539 242.571491 48.900487 61.432012 2.656050 -1.528762 1.514607 67.467611 138.778830 234.655575 2.020898 -1.154079 1.115149 -0.000001 -0.000000 0.000003 9.109050 -0.517784 2.260007 196.408974 -15.640932 272.781964 3.699720 0.000187 -0.000196 192.475031 -16.659308 253.499903 2.849728 0.000220 0.000468 550.184742 -13.785030 -107.206554 2.774878 -0.000049 -0.000031 -0.000000 0.000002 0.000001 9.533148 0.000338 0.000177 555.336836 -12.745837 -79.348145 3.699713 0.000260 -0.000107 551.349918 -11.240709 -89.443130 2.949730 0.000181 0.000051 549.018911 -12.566372 -108.767395 2.952888 -0.000017 0.000072 -0.000003 0.000001 0.000000 9.104302 -0.042694 -1.864933 557.555172 -11.206543 -64.865309 3.149792 0.000431 0.000167 553.318761 -6.418770 -51.312370 2.949717 0.000440 0.000175 554.071448 -8.747883 -63.580394 2.644308 0.000028 0.000056 -0.000003 0.000000 0.000001 8.077577 -0.486541 -3.806106 562.438156 -12.528099 -58.654912 3.599838 0.000441 0.014873 559.826948 -5.176395 -30.621008 2.099816 0.000419 0.007836 556.378686 -6.854371 -46.520217 2.125510 0.000001 0.007528 0.000001 -0.000004 -0.000002 -8.207786 -6.751667 -1.599560 -0.077001 -0.000003 0.000080 -0.000002 -44.370110 0.345938 0.153719 -0.000000 -0.000000 0.000000 -44.423679 -3.043532 -0.076700 0.000000 -0.000002 -0.000006 -8.728667 10.710559 -0.000009 -0.000000 -0.000000 -0.000001 -0.000679 9.278123 0.000000 -0.000000 -0.000000 8.207792 -6.751710 -1.599556 -0.074518 -0.000003 0.000081 -0.000002 -44.370014 0.346960 0.148822 0.000002 0.000000 -0.000001 -44.423664 -3.044403 -0.074314 0.000000 -0.000002 -0.000004 -8.728671 10.710558 0.000007 -0.000000 -0.000000 0.000000 -0.000680 9.278137 -0.000000 0.000000 -0.000001 
